# xmcd
#
# Track frame offsets:
#	150
#	14890
#	32558
#	44395
#	62135
#	83380
#	96873
#	113808
#	127988
#
# Disc length: 2197 seconds
#
# Revision: 3
# Processed by: cddbd v1.4PL0 Copyright (c) Steve Scherf et al.
#
# Submitted via: MusicManager v6.1.1.0
#
DISCID=6d089309
DTITLE=Ricky Skaggs - Highways and Heartaches
DYEAR=1982
DGENRE=country
TTITLE0=Heartbroke
TTITLE1=You've Got a Lover
TTITLE2=Don't Think I'll Cry
TTITLE3=Don't Let Your Sweet Love Die
TTITLE4=Nothing Can Hurt You
TTITLE5=I Wouldn't Change You If I Could
TTITLE6=Can't You Hear Me Callin'
TTITLE7=Highway 40 Blues
TTITLE8=Let's Love the Bad Times Away
EXTD=
EXTT0=
EXTT1=
EXTT2=
EXTT3=
EXTT4=
EXTT5=
EXTT6=
EXTT7=
EXTT8=
PLAYORDER=
